<?xml version="1.0" standalone="no"?>
<!DOCTYPE svg PUBLIC "-//W3C//DTD SVG 20010904//EN"
 "http://www.w3.org/TR/2001/REC-SVG-20010904/DTD/svg10.dtd">
<svg version="1.0" xmlns="http://www.w3.org/2000/svg"
 width="1500.000000pt" height="1500.000000pt" viewBox="0 0 1500.000000 1500.000000"
 preserveAspectRatio="xMidYMid meet">
<metadata>
Created by potrace 1.14, written by Peter Selinger 2001-2017
</metadata>
<g transform="translate(0.000000,1500.000000) scale(0.100000,-0.100000)"
fill="#000000" stroke="none">
<path d="M7218 10970 c-49 -5 -130 -18 -180 -29 -79 -16 -4037 -1047 -4169
-1086 -119 -34 -244 -122 -336 -235 -70 -86 -157 -262 -185 -375 l-23 -90 0
-1650 0 -1650 22 -88 c80 -313 271 -541 518 -620 54 -18 4031 -1057 4138
-1082 251 -58 743 -58 994 0 107 25 4084 1064 4138 1082 235 75 431 304 512
598 l28 100 0 1650 0 1650 -22 88 c-81 317 -281 552 -533 626 -187 55 -4131
1078 -4210 1093 -122 22 -546 33 -692 18z m607 -316 c105 -13 509 -110 2104
-509 2212 -553 2070 -512 2210 -641 142 -131 235 -301 271 -494 7 -36 10 -545
10 -1502 0 -1178 -3 -1462 -14 -1525 -49 -277 -256 -541 -487 -622 -30 -11
-934 -240 -2009 -509 -1478 -371 -1985 -494 -2078 -506 -165 -21 -487 -21
-657 0 -103 13 -535 117 -2088 505 -1077 269 -1982 498 -2011 508 -162 57
-326 220 -415 413 -82 177 -75 31 -79 1698 -3 1640 -6 1559 60 1720 39 95 121
219 190 289 67 67 171 136 246 162 125 44 3969 998 4077 1012 154 21 504 21
670 1z"/>
<path d="M7190 10573 c-177 -21 -4042 -989 -4139 -1036 -186 -93 -335 -304
-377 -537 -17 -97 -21 -2851 -3 -2976 34 -249 202 -488 403 -574 27 -11 935
-243 2020 -515 2247 -563 2101 -532 2481 -522 116 3 252 13 303 22 146 24
4009 993 4056 1017 209 106 364 332 396 580 8 58 10 519 8 1518 -4 1622 3
1479 -88 1666 -81 166 -226 302 -377 353 -32 11 -931 238 -1998 505 -2152 537
-2057 517 -2387 515 -95 -1 -229 -8 -298 -16z m-30 -1208 l0 -55 -75 0 -75 0
0 -240 0 -240 -65 0 -65 0 0 240 0 240 -75 0 -75 0 0 55 0 55 215 0 215 0 0
-55z m210 -55 l0 -110 130 0 130 0 0 110 0 110 65 0 65 0 0 -295 0 -295 -65 0
-65 0 0 130 0 130 -130 0 -130 0 0 -130 0 -130 -65 0 -65 0 0 295 0 295 65 0
65 0 0 -110z m870 55 l0 -55 -125 0 -125 0 0 -55 0 -55 110 0 110 0 0 -55 0
-55 -110 0 -110 0 0 -75 0 -75 125 0 125 0 0 -55 0 -55 -190 0 -190 0 0 295 0
295 190 0 190 0 0 -55z m-497 -849 c302 -91 512 -297 613 -601 36 -109 45
-308 19 -440 -18 -96 -74 -228 -139 -329 -42 -66 -170 -196 -230 -234 -172
-108 -307 -149 -501 -151 -173 -2 -272 19 -419 90 -125 60 -265 186 -345 309
-52 81 -68 115 -103 215 -28 81 -31 105 -35 245 -6 193 10 286 76 420 41 84
47 93 104 166 112 146 301 274 461 315 23 6 55 14 71 19 17 5 100 8 185 6 134
-3 167 -7 243 -30z m-2200 -197 c91 -14 207 -55 229 -80 9 -10 21 -19 27 -19
6 0 11 -7 11 -15 0 -9 10 -19 23 -24 29 -11 119 -98 178 -171 62 -77 121 -197
159 -320 41 -136 47 -152 86 -231 36 -73 54 -191 54 -359 0 -74 -3 -90 -20
-105 -21 -19 -36 -19 -260 5 -52 5 -125 10 -162 10 -90 0 -100 4 -83 37 14 27
12 102 -5 198 -5 28 -12 77 -16 110 -3 33 -12 85 -20 116 -8 31 -14 67 -14 79
0 20 3 22 33 16 94 -20 94 -20 111 12 18 34 22 112 6 112 -5 0 -10 -9 -10 -20
0 -31 -28 -80 -46 -80 -32 0 -150 34 -166 47 -12 11 -21 12 -37 4 -41 -22
-174 -8 -192 21 -6 9 -13 8 -28 -6 -25 -23 -137 -34 -169 -17 -18 10 -27 8
-49 -8 -16 -11 -61 -27 -102 -36 -69 -15 -75 -15 -92 1 -11 10 -22 35 -25 56
-9 52 -24 48 -24 -6 0 -29 7 -52 22 -71 20 -26 25 -27 80 -22 65 6 67 3 48
-63 -6 -19 -18 -86 -26 -149 -8 -63 -17 -118 -19 -122 -10 -16 -7 -170 4 -183
16 -19 -6 -26 -87 -26 -37 0 -110 -5 -162 -10 -224 -24 -239 -24 -260 -5 -17
15 -20 31 -20 106 0 163 18 284 55 357 33 68 55 129 95 262 24 79 63 161 116
245 39 62 176 203 210 215 13 5 24 16 24 25 0 8 5 15 11 15 6 0 18 9 27 19 10
10 40 27 67 36 28 9 59 21 70 26 57 25 240 35 348 18z m3529 -341 c32 -22 56
-49 73 -82 24 -49 26 -50 71 -51 54 -1 84 -28 84 -76 0 -19 12 -42 36 -69 35
-39 36 -40 13 -40 -18 0 -39 -21 -86 -83 -53 -70 -259 -329 -311 -392 -9 -11
-57 -71 -107 -134 -49 -63 -107 -132 -127 -155 l-38 -41 0 482 c0 460 1 482
18 488 21 6 42 45 42 78 0 53 47 82 90 55 16 -10 24 -10 38 0 90 65 131 69
204 20z m1261 -74 c34 -16 36 -16 62 5 15 11 38 21 51 21 l24 0 0 -535 c0
-510 -1 -534 -17 -517 -23 22 -152 177 -273 327 -52 65 -133 163 -179 219 -46
55 -109 133 -138 173 l-55 72 26 48 c27 49 105 113 138 113 9 0 20 5 23 10 3
6 16 10 28 10 11 0 35 13 52 29 16 16 46 34 65 40 47 14 149 6 193 -15z m-866
-266 c-6 -23 -5 -23 108 -23 113 0 114 0 108 23 -4 17 -1 22 14 22 11 0 28 -8
37 -19 9 -10 30 -21 47 -25 33 -6 40 -26 9 -26 -13 0 -18 -5 -14 -15 4 -8 18
-15 34 -15 15 0 35 -9 45 -20 17 -18 16 -19 -9 -26 -14 -3 -26 -9 -26 -13 0
-16 26 -31 51 -31 18 0 34 -8 44 -22 15 -22 14 -23 -7 -29 -42 -11 -5 -69 43
-69 23 0 35 -10 64 -52 35 -52 35 -53 13 -56 -38 -6 -42 -19 -15 -46 16 -16
37 -26 54 -26 20 0 33 -8 44 -28 10 -15 36 -53 59 -84 l42 -58 -36 0 c-40 0
-43 -5 -20 -38 11 -17 25 -22 57 -22 42 0 43 -1 95 -82 28 -45 52 -87 52 -95
0 -10 -25 -13 -109 -13 -109 0 -110 0 -123 28 -8 15 -46 88 -85 162 -97 184
-239 461 -278 539 -23 47 -33 60 -38 48 -6 -15 -25 -17 -152 -17 -130 0 -145
2 -145 17 0 36 0 36 -221 -392 -59 -115 -128 -248 -152 -295 l-44 -85 -112 -3
c-61 -1 -111 1 -111 6 0 14 90 156 107 170 9 6 32 12 51 12 21 0 40 7 48 18
23 29 16 42 -21 42 l-35 0 56 85 c48 72 61 85 84 85 31 0 83 36 77 54 -2 6
-16 13 -30 16 l-27 5 37 53 c28 40 42 52 63 52 29 0 76 42 65 59 -3 6 -15 11
-26 11 -18 0 -19 1 -3 25 11 16 26 25 43 25 26 0 51 16 51 32 0 4 -6 8 -14 8
-8 0 -18 5 -21 10 -11 17 15 40 45 40 16 0 30 7 34 15 4 10 -1 15 -14 15 -31
0 -24 20 9 26 17 4 38 15 47 25 9 11 26 19 37 19 15 0 18 -5 14 -22z m304
-195 l8 -23 -204 0 c-190 0 -204 1 -198 18 4 9 11 20 17 24 6 5 91 7 190 5
175 -2 179 -2 187 -24z m-4107 -75 l48 -13 -6 -50 c-3 -27 -10 -51 -16 -53 -5
-2 -10 -9 -10 -16 0 -7 -9 -21 -20 -31 -11 -10 -20 -24 -20 -32 0 -7 -5 -13
-11 -13 -5 0 -27 -13 -47 -29 -52 -40 -132 -54 -228 -40 -69 11 -79 15 -128
60 -57 52 -106 134 -106 178 0 25 5 29 53 40 28 6 70 13 92 15 79 8 351 -3
399 -16z m4061 -17 l90 -6 22 -40 c12 -22 22 -46 22 -52 1 -10 -62 -13 -284
-13 -157 0 -285 4 -285 8 0 5 10 29 23 53 l24 44 74 6 c104 8 209 8 314 0z
m212 -256 c23 -44 42 -83 43 -87 0 -5 -182 -8 -405 -8 -223 0 -405 2 -405 3 0
15 82 166 92 170 7 3 153 5 323 4 l310 -2 42 -80z m77 -170 c21 -21 62 -105
71 -144 l7 -31 -516 0 c-412 0 -516 3 -516 13 0 19 70 161 83 169 7 4 202 8
434 8 366 0 424 -2 437 -15z m-6536 -480 c49 -21 112 -65 112 -79 0 -6 -18
-31 -38 -55 l-38 -43 -38 26 c-38 26 -63 31 -121 27 -109 -9 -173 -155 -114
-261 55 -97 180 -112 266 -31 12 12 26 21 30 21 12 -1 83 -69 83 -80 0 -18
-76 -83 -125 -106 -72 -34 -172 -33 -243 2 -65 32 -132 106 -155 170 -27 78
-23 176 12 249 33 70 101 136 164 159 56 19 158 20 205 1z m577 -9 c63 -29
138 -111 159 -173 9 -26 16 -78 16 -117 0 -123 -73 -237 -184 -287 -57 -26
-166 -25 -226 2 -108 48 -180 163 -180 285 0 93 22 153 78 215 63 70 126 99
217 99 52 0 83 -6 120 -24z m481 -176 l139 -190 3 190 2 190 65 0 65 0 0 -300
0 -300 -63 0 -63 0 -142 192 -142 192 0 -192 0 -192 -65 0 -65 0 0 300 0 300
63 0 63 0 140 -190z m704 130 l0 -60 -125 0 -125 0 0 -50 0 -50 110 0 110 0 0
-60 0 -60 -110 0 -110 0 0 -130 0 -130 -65 0 -65 0 0 300 0 300 190 0 190 0 0
-60z m240 10 c0 -47 -2 -50 -25 -50 l-25 0 0 -200 0 -200 25 0 c23 0 25 -3 25
-50 l0 -50 -115 0 -115 0 0 50 c0 47 2 50 25 50 l25 0 0 200 0 200 -25 0 c-23
0 -25 3 -25 50 l0 50 115 0 115 0 0 -50z m418 24 c94 -47 142 -139 142 -274 0
-133 -53 -235 -143 -279 -38 -19 -61 -21 -205 -21 l-162 0 0 300 0 300 158 0
c150 0 161 -1 210 -26z m562 -34 l0 -60 -125 0 -125 0 0 -50 0 -50 110 0 110
0 0 -60 0 -60 -110 0 -110 0 0 -70 0 -70 125 0 125 0 0 -60 0 -60 -190 0 -190
0 0 300 0 300 190 0 190 0 0 -60z m316 -130 l139 -190 3 190 2 190 65 0 65 0
0 -300 0 -300 -63 0 -63 0 -142 192 -142 192 0 -192 0 -192 -65 0 -65 0 0 300
0 300 63 0 63 0 140 -190z m744 130 l0 -60 -80 0 -80 0 0 -240 0 -240 -65 0
-65 0 0 240 0 240 -80 0 -80 0 0 60 0 60 225 0 225 0 0 -60z m650 0 l0 -60
-80 0 -80 0 0 -240 0 -240 -65 0 -65 0 0 240 0 240 -80 0 -80 0 0 60 0 60 225
0 225 0 0 -60z m388 32 c93 -67 96 -242 4 -299 -15 -9 -29 -18 -31 -20 -2 -1
37 -53 86 -115 49 -62 92 -119 97 -125 5 -10 -11 -13 -72 -13 l-79 0 -92 120
c-73 96 -97 120 -116 120 l-25 0 0 -120 0 -120 -65 0 -65 0 0 301 0 300 163
-3 c151 -3 164 -5 195 -26z m694 -272 l126 -301 -77 3 -76 3 -25 63 -25 62
-125 -2 -125 -3 -25 -62 -25 -63 -72 0 c-40 0 -73 3 -73 7 0 4 55 139 122 300
l123 293 75 0 76 0 126 -300z m267 92 c46 -114 87 -211 91 -215 4 -5 12 4 17
20 6 15 45 112 88 216 l77 187 75 0 c56 0 74 -3 70 -12 -13 -34 -227 -537
-238 -560 -12 -27 -15 -28 -88 -28 l-76 0 -126 300 -127 300 77 0 76 0 84
-208z m831 148 l0 -60 -125 0 -125 0 0 -50 0 -50 110 0 110 0 0 -60 0 -60
-110 0 -110 0 0 -70 0 -70 125 0 125 0 0 -60 0 -60 -190 0 -190 0 0 300 0 300
190 0 190 0 0 -60z m180 -180 l0 -240 125 0 125 0 0 -60 0 -60 -190 0 -190 0
0 300 0 300 65 0 65 0 0 -240z m650 180 l0 -60 -125 0 -125 0 0 -50 0 -50 110
0 110 0 0 -60 0 -60 -110 0 -110 0 0 -70 0 -70 125 0 125 0 0 -60 0 -60 -190
0 -190 0 0 300 0 300 190 0 190 0 0 -60z m408 32 c93 -67 96 -242 4 -299 -15
-9 -29 -18 -31 -20 -2 -1 37 -53 86 -115 49 -62 92 -119 97 -125 5 -10 -11
-13 -72 -13 l-79 0 -92 120 c-73 96 -97 120 -116 120 l-25 0 0 -120 0 -120
-65 0 -65 0 0 301 0 300 163 -3 c151 -3 164 -5 195 -26z"/>
<path d="M7328 8381 c-154 -34 -309 -133 -410 -259 -85 -107 -123 -190 -153
-330 -41 -197 13 -426 139 -587 272 -350 770 -393 1099 -95 49 44 136 161 164
220 130 275 83 605 -119 825 -183 201 -452 285 -720 226z m363 -81 c177 -57
330 -185 406 -340 58 -117 76 -206 71 -339 -10 -255 -152 -471 -382 -580 -175
-82 -388 -86 -562 -10 -292 129 -456 447 -390 762 36 175 157 348 304 434 71
42 183 84 247 93 85 12 236 2 306 -20z"/>
<path d="M7435 8175 c0 -68 2 -75 20 -75 15 0 16 3 7 12 -7 7 -12 29 -12 50 0
46 13 43 59 -17 19 -24 39 -41 44 -38 5 3 6 30 2 60 -4 36 -3 59 5 69 10 11 9
14 -7 14 -16 0 -18 -6 -15 -37 l3 -38 -31 38 c-19 21 -41 37 -53 37 -21 0 -22
-5 -22 -75z"/>
<path d="M7290 8148 c0 -7 19 -76 41 -153 89 -305 89 -299 8 -220 -68 66 -68
60 -2 -27 27 -36 52 -58 64 -58 10 0 19 -6 19 -12 0 -16 53 -122 63 -126 4 -2
7 -9 7 -15 0 -7 16 -43 36 -82 20 -38 61 -117 90 -175 39 -78 53 -98 53 -78 1
15 -3 29 -8 33 -6 3 -13 26 -17 50 -3 25 -10 48 -15 50 -4 3 -11 27 -15 53 -3
26 -10 52 -15 57 -12 16 -23 95 -13 95 5 0 35 -26 68 -57 65 -64 65 -57 -2 30
-33 44 -48 56 -62 52 -23 -7 -40 21 -40 64 0 20 -42 113 -115 255 -63 123
-115 229 -115 236 0 6 -7 18 -15 26 -12 12 -15 12 -15 2z m240 -526 c0 -10 7
-42 15 -72 30 -111 30 -108 1 -68 -14 20 -26 41 -26 46 0 5 -13 27 -28 48 -28
38 -30 62 -9 76 16 10 47 -10 47 -30z"/>
<path d="M7669 7827 c-14 -12 -36 -29 -49 -37 -48 -32 -62 -47 -59 -62 3 -12
22 0 73 48 66 62 89 96 35 51z"/>
<path d="M7955 7630 l0 -80 58 0 c43 0 59 4 64 15 9 24 -5 30 -25 12 -28 -25
-42 -21 -42 13 0 22 4 28 15 24 11 -4 15 0 15 16 0 16 -4 20 -15 16 -11 -4
-15 1 -15 18 0 33 10 38 38 20 26 -17 38 -13 29 11 -5 11 -21 15 -64 15 l-58
0 0 -80z"/>
<path d="M6905 7679 c13 -39 55 -129 60 -129 3 0 13 16 21 35 18 43 28 44 40
4 13 -43 24 -41 44 11 25 65 32 100 20 100 -5 0 -10 -12 -10 -26 0 -14 -6 -32
-14 -39 -11 -12 -15 -8 -26 26 -10 31 -18 39 -37 39 -24 0 -29 -10 -13 -26 5
-5 7 -19 3 -32 -7 -29 -29 -13 -38 29 -5 23 -12 29 -31 29 -21 0 -24 -4 -19
-21z"/>
<path d="M7350 7474 l-75 -76 65 45 c87 62 90 65 90 87 0 11 -1 20 -3 20 -1 0
-36 -34 -77 -76z"/>
<path d="M7450 7179 c-9 -16 -8 -26 5 -45 8 -13 22 -24 29 -24 22 0 41 -29 28
-42 -9 -9 -19 -6 -43 11 l-31 23 4 -23 c4 -31 53 -44 85 -23 35 22 30 59 -12
86 -19 13 -35 29 -35 36 0 18 31 15 46 -5 12 -17 13 -16 14 5 0 19 -5 22 -40
22 -29 0 -42 -5 -50 -21z"/>
<path d="M5410 7731 c0 -17 18 -21 24 -6 3 9 0 15 -9 15 -8 0 -15 -4 -15 -9z"/>
<path d="M5180 7710 c0 -5 7 -10 15 -10 8 0 15 5 15 10 0 6 -7 10 -15 10 -8 0
-15 -4 -15 -10z"/>
<path d="M5640 7710 c0 -5 7 -10 15 -10 8 0 15 5 15 10 0 6 -7 10 -15 10 -8 0
-15 -4 -15 -10z"/>
<path d="M9439 7578 c-5 -9 -9 -18 -9 -20 0 -2 65 -3 145 -3 106 0 145 3 145
12 0 21 -18 24 -146 26 -109 2 -127 0 -135 -15z"/>
<path d="M3905 6320 c-142 -30 -173 -244 -48 -321 73 -45 168 -17 212 61 71
127 -30 288 -164 260z"/>
<path d="M5660 6150 l0 -183 76 5 c121 8 166 56 166 178 0 122 -45 170 -166
178 l-76 5 0 -183z"/>
<path d="M8330 6270 l0 -60 58 0 c92 0 135 48 87 96 -20 20 -34 24 -85 24
l-60 0 0 -60z"/>
<path d="M9042 6254 c-10 -20 -62 -145 -62 -151 0 -2 32 -3 71 -3 81 0 79 -8
29 109 -24 55 -29 62 -38 45z"/>
<path d="M11360 6270 l0 -60 58 0 c92 0 135 48 87 96 -20 20 -34 24 -85 24
l-60 0 0 -60z"/>
</g>
</svg>
